<region>
sample=36.wav
lokey=36
hikey=36
pitch_keycenter=36


<region>
sample=37.wav
lokey=37
hikey=37
pitch_keycenter=37


<region>
sample=38.wav
lokey=38
hikey=38
pitch_keycenter=38


<region>
sample=39.wav
lokey=39
hikey=39
pitch_keycenter=39


<region>
sample=40.wav
lokey=40
hikey=40
pitch_keycenter=40


<region>
sample=41.wav
lokey=41
hikey=41
pitch_keycenter=41


<region>
sample=42.wav
lokey=42
hikey=42
pitch_keycenter=42


<region>
sample=43.wav
lokey=43
hikey=43
pitch_keycenter=43


<region>
sample=44.wav
lokey=44
hikey=44
pitch_keycenter=44


<region>
sample=45.wav
lokey=45
hikey=45
pitch_keycenter=45


<region>
sample=46.wav
lokey=46
hikey=46
pitch_keycenter=46


<region>
sample=47.wav
lokey=47
hikey=47
pitch_keycenter=47


<region>
sample=48.wav
lokey=48
hikey=48
pitch_keycenter=48


<region>
sample=49.wav
lokey=49
hikey=49
pitch_keycenter=49


<region>
sample=50.wav
lokey=50
hikey=50
pitch_keycenter=50f


<region>
sample=51.wav
lokey=51
hikey=51
pitch_keycenter=51


<region>
sample=52.wav
lokey=52
hikey=52
pitch_keycenter=52


<region>
sample=53.wav
lokey=53
hikey=53
pitch_keycenter=53


<region>
sample=54.wav
lokey=54
hikey=54
pitch_keycenter=54


<region>
sample=55.wav
lokey=55
hikey=55
pitch_keycenter=55


<region>
sample=56.wav
lokey=56
hikey=56
pitch_keycenter=56


<region>
sample=57.wav
lokey=57
hikey=57
pitch_keycenter=57


<region>
sample=58.wav
lokey=58
hikey=58
pitch_keycenter=58


<region>
sample=59.wav
lokey=59
hikey=59
pitch_keycenter=59


<region>
sample=60.wav
lokey=60
hikey=60
pitch_keycenter=60


<region>
sample=61.wav
lokey=61
hikey=61
pitch_keycenter=61


<region>
sample=62.wav
lokey=62
hikey=62
pitch_keycenter=62


<region>
sample=63.wav
lokey=63
hikey=63
pitch_keycenter=63


<region>
sample=64.wav
lokey=64
hikey=65
pitch_keycenter=64


<region>
sample=66.wav
lokey=66
hikey=66
pitch_keycenter=66


<region>
sample=67.wav
lokey=67
hikey=67
pitch_keycenter=67
